<svg xmlns="http://www.w3.org/2000/svg" viewBox="0 0 319.51 105.52"><defs><style>.cls-1{fill:none;stroke:#231f20;stroke-miterlimit:10;stroke-width:8px;}.cls-2{fill:#231f20;}</style></defs><g id="Layer_2" data-name="Layer 2"><g id="Layer_1-2" data-name="Layer 1"><rect class="cls-1" x="4" y="4" width="311.51" height="97.52" rx="5.67"/><path class="cls-2" d="M52.69,69.28,37.21,48.14V80.3H23.44V25.22H37.8l18.68,28.2,18.68-28.2H89.53V80.3H75.76V48.14L60.27,69.28Z"/><path class="cls-2" d="M112.48,25.22v22h9.33l17.7-22h14.28v6.5l-20,22.75,20,22.74V80.3H139.51L122.46,61h-10V80.3H98.71V25.22Z"/><path class="cls-2" d="M185,80.3V39H163V25.22H220.8V39h-22V80.3Z"/><path class="cls-2" d="M259.24,69.28,243.75,48.14V80.3H230V25.22h14.37L263,53.42l18.68-28.2h14.36V80.3H282.31V48.14L266.82,69.28Z"/></g></g></svg>