<svg xmlns="http://www.w3.org/2000/svg" viewBox="0 0 689.87 241.25"><defs><style>.cls-1{fill:none;stroke-width:12px;}.cls-1,.cls-2{stroke:#292728;stroke-miterlimit:10;}.cls-2{fill:#292728;}</style></defs><g id="Layer_2" data-name="Layer 2"><g id="Layer_1-2" data-name="Layer 1"><rect class="cls-1" x="6" y="6" width="677.87" height="229.25"/><path class="cls-2" d="M41.84,208.39,65.6,35.85h54.2q30.39,0,43.18,13.41Q176,63,173,84.8q-4.45,32.4-37,35.08,18,2.69,25.21,12.07T166,159q-3.06,22.23-19.34,35.75T107.1,208.39ZM93.59,171c.89.08,1.66.13,2.33.17s1.22.06,1.66.06q8.72,0,14.55-4.59A18.18,18.18,0,0,0,119,154.3c.7-5.14-.47-9.16-3.54-12.07s-7.61-4.35-13.64-4.35H98.15Zm9.38-68h3.12q8.39,0,13.78-3.91A15.51,15.51,0,0,0,126.24,88q2.07-15-14.36-15c-.52,0-1.18,0-2,.06s-1.75.09-2.88.17Z"/><path class="cls-2" d="M165.33,208.39,189.09,35.85h44.48l15,60.57q1.15,5.35,2.61,12.29t3.11,16l2.71,15.2q.53-22.47,1.38-38.44t2.35-26.82l5.34-38.78h44.48L286.79,208.39H242.32L227.6,144.92q-2.29-10.17-4-19.06t-2.86-16.93q-1.07,18.22-2.25,31.74t-2.59,23.69l-6.07,44Z"/><path class="cls-2" d="M373,108.6h65l-1,7.15q-6.86,49.84-24.74,71.74Q392.77,211.4,361,211.4q-31.18,0-45.71-23.46-14.4-23.7-8.7-65,5.78-41.9,26.86-66t51.93-24.14q40.9,0,53.46,42.69L391.46,92q.12-8.16-2.86-12.91a9.45,9.45,0,0,0-8.45-4.75q-19.23,0-26.5,52.86-3.11,22.46-.25,32.63T365.52,170a14.28,14.28,0,0,0,7-1.79,18.76,18.76,0,0,0,5.78-5,31.74,31.74,0,0,0,4.32-7.88,45.13,45.13,0,0,0,2.6-10.33H368Z"/><path class="cls-2" d="M512,208.39H430.41L454.18,35.85h46.59l-18,131.08h35Z"/><path class="cls-2" d="M639.38,208.39H589l-14.56-61.46a40.63,40.63,0,0,0-.6-4.14q-.48-2.56-1.22-6.14L571.37,148l-8.31,60.35H516.69L540.45,35.85h47.72q31.5,0,45.44,12.41,17.71,15.87,13.68,45.14-4.32,31.29-32.67,43.25ZM576,115.75h3.13a19.69,19.69,0,0,0,14.26-6.15A26.34,26.34,0,0,0,601,94q2.65-19.33-17.57-19.33h-1.67Z"/></g></g></svg>